<svg id="Capa_1" enable-background="new 0 0 512 512" height="512" viewBox="0 0 512 512" width="512" xmlns="http://www.w3.org/2000/svg"><g><path d="m76 0c-41.562 0-45.004 63.674-45 105.055.002 8.205 6.795 14.945 15 14.945h105c2.122-88.887-44.196-120-75-120z" fill="#e1e6f0"/><path d="m421 0h-345c30.804 0 47.122 31.113 45 120v377c0 8.291 6.709 15 15 15h330c8.291 0 15-6.709 15-15v-392c0-77.417-30.996-105-60-105z" fill="#f3f5f9"/><path d="m481 497v-392c0-77.417-30.996-105-60-105h-120v512h165c8.291 0 15-6.709 15-15z" fill="#e1e6f0"/><g><path d="m256 451h-60c-8.291 0-15-6.709-15-15s6.709-15 15-15h60c8.291 0 15 6.709 15 15s-6.709 15-15 15z" fill="#fb9"/></g><g><path d="m406 451h-60c-8.291 0-15-6.709-15-15s6.709-15 15-15h60c8.291 0 15 6.709 15 15s-6.709 15-15 15z" fill="#ff9680"/></g><path d="m331 60.015c-12.92 0-22.793 4.863-30 11.265-7.178-6.401-17.08-11.265-30-11.265-25.225 0-45 18.955-45 43.169 0 25.503 21.211 40.986 50.566 62.432l15.439 11.396c2.666 2.007 5.83 3.003 8.994 3.003s6.328-.996 8.994-3.003l15.38-11.323c29.387-21.475 50.627-36.988 50.627-62.505 0-24.214-19.775-43.169-45-43.169z" fill="#ff8c9f"/><path d="m325.374 165.688c29.386-21.474 50.626-36.987 50.626-62.504 0-24.214-19.775-43.169-45-43.169-12.92 0-22.793 4.863-30 11.265v108.735c3.164 0 6.328-.996 8.994-3.003z" fill="#f255a3"/><g fill="#fb9"><path d="m256 240h90c8.291 0 15-6.709 15-15s-6.709-15-15-15h-90c-8.291 0-15 6.709-15 15s6.709 15 15 15z"/><path d="m196 300h210c8.291 0 15-6.709 15-15s-6.709-15-15-15h-210c-8.291 0-15 6.709-15 15s6.709 15 15 15z"/><path d="m406 330h-210c-8.291 0-15 6.709-15 15s6.709 15 15 15h210c8.291 0 15-6.709 15-15s-6.709-15-15-15z"/></g><path d="m361 225c0-8.291-6.709-15-15-15h-45v30h45c8.291 0 15-6.709 15-15z" fill="#ff9680"/><path d="m421 285c0-8.291-6.709-15-15-15h-105v30h105c8.291 0 15-6.709 15-15z" fill="#ff9680"/><path d="m421 345c0-8.291-6.709-15-15-15h-105v30h105c8.291 0 15-6.709 15-15z" fill="#ff9680"/></g></svg>